0
SECTION
2
HEADER
9
$INSUNITS
70
4
0
ENDSEC
0
SECTION
2
TABLES
0
TABLE
2
LTYPE
0
LTYPE
72
65
70
64
2
CONTINUOUS
3
______
73
0
40
0
0
ENDTAB
0
TABLE
2
LAYER
0
ENDTAB
0
ENDSEC
0
SECTION
2
ENTITIES
0
LINE
8
0
10
40.625
20
-2.525
11
54.625
21
-2.525
0
LINE
8
0
10
40.625
20
-16.525
11
54.625
21
-16.525
0
LINE
8
0
10
40.625
20
-2.525
11
40.625
21
-16.525
0
LINE
8
0
10
54.625
20
-2.525
11
54.625
21
-16.525
0
LINE
8
0
10
59.675
20
-5.3825
11
73.675
21
-5.3825
0
LINE
8
0
10
59.675
20
-19.3825
11
73.675
21
-19.3825
0
LINE
8
0
10
59.675
20
-5.3825
11
59.675
21
-19.3825
0
LINE
8
0
10
73.675
20
-5.3825
11
73.675
21
-19.3825
0
LINE
8
0
10
21.575
20
-7.2875
11
35.575
21
-7.2875
0
LINE
8
0
10
21.575
20
-21.2875
11
35.575
21
-21.2875
0
LINE
8
0
10
21.575
20
-7.2875
11
21.575
21
-21.2875
0
LINE
8
0
10
35.575
20
-7.2875
11
35.575
21
-21.2875
0
LINE
8
0
10
2.525
20
-10.145
11
16.525
21
-10.145
0
LINE
8
0
10
2.525
20
-24.145
11
16.525
21
-24.145
0
LINE
8
0
10
2.525
20
-10.145
11
2.525
21
-24.145
0
LINE
8
0
10
16.525
20
-10.145
11
16.525
21
-24.145
0
LINE
8
0
10
40.625
20
-21.575
11
54.625
21
-21.575
0
LINE
8
0
10
40.625
20
-35.575
11
54.625
21
-35.575
0
LINE
8
0
10
40.625
20
-21.575
11
40.625
21
-35.575
0
LINE
8
0
10
54.625
20
-21.575
11
54.625
21
-35.575
0
LINE
8
0
10
59.675
20
-24.4325
11
73.675
21
-24.4325
0
LINE
8
0
10
59.675
20
-38.4325
11
73.675
21
-38.4325
0
LINE
8
0
10
59.675
20
-24.4325
11
59.675
21
-38.4325
0
LINE
8
0
10
73.675
20
-24.4325
11
73.675
21
-38.4325
0
LINE
8
0
10
21.575
20
-26.3375
11
35.575
21
-26.3375
0
LINE
8
0
10
21.575
20
-40.3375
11
35.575
21
-40.3375
0
LINE
8
0
10
21.575
20
-26.3375
11
21.575
21
-40.3375
0
LINE
8
0
10
35.575
20
-26.3375
11
35.575
21
-40.3375
0
LINE
8
0
10
2.525
20
-29.195
11
16.525
21
-29.195
0
LINE
8
0
10
2.525
20
-43.195
11
16.525
21
-43.195
0
LINE
8
0
10
2.525
20
-29.195
11
2.525
21
-43.195
0
LINE
8
0
10
16.525
20
-29.195
11
16.525
21
-43.195
0
LINE
8
0
10
0
20
-45.72
11
76.2
21
-45.72
0
LINE
8
0
10
0
20
0
11
76.2
21
0
0
LINE
8
0
10
0
20
-45.72
11
0
21
0
0
LINE
8
0
10
76.2
20
-45.72
11
76.2
21
0
0
ENDSEC
0
EOF